<mxfile host="app.diagrams.net" modified="2021-01-03T09:44:07.100Z" agent="5.0 (Windows NT 10.0; WOW64) AppleWebKit/537.36 (KHTML, like Gecko) Chrome/70.0.3538.25 Safari/537.36 Core/1.70.3864.400 QQBrowser/10.7.4355.400" etag="PSrZOzXiPKyHTfsd2qqt" version="14.1.7" type="github">
  <diagram id="96aYwJWDzOBhME4xVaL_" name="Page-1">
    <mxGraphModel dx="1192" dy="495" grid="1" gridSize="10" guides="1" tooltips="1" connect="1" arrows="1" fold="1" page="1" pageScale="1" pageWidth="827" pageHeight="1169" math="0" shadow="0">
      <root>
        <mxCell id="0" />
        <mxCell id="1" parent="0" />
        <mxCell id="oK0fGmxJK0vOrvhZGqwX-1" value="后台功能模块" style="rounded=0;whiteSpace=wrap;html=1;" vertex="1" parent="1">
          <mxGeometry x="430" y="120" width="106" height="40" as="geometry" />
        </mxCell>
        <mxCell id="oK0fGmxJK0vOrvhZGqwX-32" style="edgeStyle=orthogonalEdgeStyle;rounded=0;orthogonalLoop=1;jettySize=auto;html=1;exitX=0;exitY=1;exitDx=0;exitDy=0;entryX=0;entryY=0.5;entryDx=0;entryDy=0;" edge="1" parent="1" source="oK0fGmxJK0vOrvhZGqwX-2" target="oK0fGmxJK0vOrvhZGqwX-16">
          <mxGeometry relative="1" as="geometry">
            <Array as="points">
              <mxPoint x="250" y="330" />
              <mxPoint x="250" y="400" />
              <mxPoint x="195" y="400" />
            </Array>
          </mxGeometry>
        </mxCell>
        <mxCell id="oK0fGmxJK0vOrvhZGqwX-34" style="edgeStyle=orthogonalEdgeStyle;rounded=0;orthogonalLoop=1;jettySize=auto;html=1;exitX=0.25;exitY=1;exitDx=0;exitDy=0;" edge="1" parent="1" source="oK0fGmxJK0vOrvhZGqwX-2" target="oK0fGmxJK0vOrvhZGqwX-15">
          <mxGeometry relative="1" as="geometry" />
        </mxCell>
        <mxCell id="oK0fGmxJK0vOrvhZGqwX-35" style="edgeStyle=orthogonalEdgeStyle;rounded=0;orthogonalLoop=1;jettySize=auto;html=1;exitX=0.5;exitY=1;exitDx=0;exitDy=0;" edge="1" parent="1" source="oK0fGmxJK0vOrvhZGqwX-2" target="oK0fGmxJK0vOrvhZGqwX-14">
          <mxGeometry relative="1" as="geometry" />
        </mxCell>
        <mxCell id="oK0fGmxJK0vOrvhZGqwX-36" style="edgeStyle=orthogonalEdgeStyle;rounded=0;orthogonalLoop=1;jettySize=auto;html=1;exitX=0.75;exitY=1;exitDx=0;exitDy=0;" edge="1" parent="1" source="oK0fGmxJK0vOrvhZGqwX-2" target="oK0fGmxJK0vOrvhZGqwX-17">
          <mxGeometry relative="1" as="geometry" />
        </mxCell>
        <mxCell id="oK0fGmxJK0vOrvhZGqwX-37" style="edgeStyle=orthogonalEdgeStyle;rounded=0;orthogonalLoop=1;jettySize=auto;html=1;exitX=1;exitY=1;exitDx=0;exitDy=0;" edge="1" parent="1" source="oK0fGmxJK0vOrvhZGqwX-2" target="oK0fGmxJK0vOrvhZGqwX-13">
          <mxGeometry relative="1" as="geometry" />
        </mxCell>
        <mxCell id="oK0fGmxJK0vOrvhZGqwX-2" value="管理员模块" style="rounded=0;whiteSpace=wrap;html=1;" vertex="1" parent="1">
          <mxGeometry x="260" y="270" width="130" height="60" as="geometry" />
        </mxCell>
        <mxCell id="oK0fGmxJK0vOrvhZGqwX-43" style="edgeStyle=orthogonalEdgeStyle;rounded=0;orthogonalLoop=1;jettySize=auto;html=1;exitX=0;exitY=1;exitDx=0;exitDy=0;" edge="1" parent="1" source="oK0fGmxJK0vOrvhZGqwX-3" target="oK0fGmxJK0vOrvhZGqwX-39">
          <mxGeometry relative="1" as="geometry" />
        </mxCell>
        <mxCell id="oK0fGmxJK0vOrvhZGqwX-44" style="edgeStyle=orthogonalEdgeStyle;rounded=0;orthogonalLoop=1;jettySize=auto;html=1;exitX=0.25;exitY=1;exitDx=0;exitDy=0;entryX=0;entryY=0.25;entryDx=0;entryDy=0;" edge="1" parent="1" source="oK0fGmxJK0vOrvhZGqwX-3" target="oK0fGmxJK0vOrvhZGqwX-40">
          <mxGeometry relative="1" as="geometry">
            <Array as="points">
              <mxPoint x="590" y="420" />
              <mxPoint x="598" y="420" />
            </Array>
          </mxGeometry>
        </mxCell>
        <mxCell id="oK0fGmxJK0vOrvhZGqwX-45" style="edgeStyle=orthogonalEdgeStyle;rounded=0;orthogonalLoop=1;jettySize=auto;html=1;exitX=0.75;exitY=1;exitDx=0;exitDy=0;entryX=0;entryY=0.5;entryDx=0;entryDy=0;" edge="1" parent="1" source="oK0fGmxJK0vOrvhZGqwX-3" target="oK0fGmxJK0vOrvhZGqwX-41">
          <mxGeometry relative="1" as="geometry" />
        </mxCell>
        <mxCell id="oK0fGmxJK0vOrvhZGqwX-46" style="edgeStyle=orthogonalEdgeStyle;rounded=0;orthogonalLoop=1;jettySize=auto;html=1;exitX=1;exitY=1;exitDx=0;exitDy=0;entryX=0;entryY=0.5;entryDx=0;entryDy=0;" edge="1" parent="1" source="oK0fGmxJK0vOrvhZGqwX-3" target="oK0fGmxJK0vOrvhZGqwX-42">
          <mxGeometry relative="1" as="geometry" />
        </mxCell>
        <mxCell id="oK0fGmxJK0vOrvhZGqwX-3" value="顾客模块" style="rounded=0;whiteSpace=wrap;html=1;" vertex="1" parent="1">
          <mxGeometry x="560" y="270" width="120" height="50" as="geometry" />
        </mxCell>
        <mxCell id="oK0fGmxJK0vOrvhZGqwX-5" value="" style="endArrow=none;html=1;exitX=0.5;exitY=1;exitDx=0;exitDy=0;entryX=0.5;entryY=0;entryDx=0;entryDy=0;" edge="1" parent="1" source="oK0fGmxJK0vOrvhZGqwX-1" target="oK0fGmxJK0vOrvhZGqwX-3">
          <mxGeometry width="50" height="50" relative="1" as="geometry">
            <mxPoint x="430" y="430" as="sourcePoint" />
            <mxPoint x="480" y="380" as="targetPoint" />
          </mxGeometry>
        </mxCell>
        <mxCell id="oK0fGmxJK0vOrvhZGqwX-6" value="" style="endArrow=none;html=1;entryX=0.5;entryY=1;entryDx=0;entryDy=0;exitX=0.5;exitY=0;exitDx=0;exitDy=0;" edge="1" parent="1" source="oK0fGmxJK0vOrvhZGqwX-2" target="oK0fGmxJK0vOrvhZGqwX-1">
          <mxGeometry width="50" height="50" relative="1" as="geometry">
            <mxPoint x="430" y="430" as="sourcePoint" />
            <mxPoint x="480" y="380" as="targetPoint" />
          </mxGeometry>
        </mxCell>
        <mxCell id="oK0fGmxJK0vOrvhZGqwX-13" value="&lt;font style=&quot;font-size: 14px&quot;&gt;日、月销售额统计&lt;/font&gt;" style="rounded=0;whiteSpace=wrap;html=1;direction=south;" vertex="1" parent="1">
          <mxGeometry x="414" y="470" width="40" height="90" as="geometry" />
        </mxCell>
        <mxCell id="oK0fGmxJK0vOrvhZGqwX-14" value="&lt;font style=&quot;font-size: 18px&quot;&gt;产品折扣管理&lt;/font&gt;" style="rounded=0;whiteSpace=wrap;html=1;direction=south;" vertex="1" parent="1">
          <mxGeometry x="290" y="470" width="50" height="90" as="geometry" />
        </mxCell>
        <mxCell id="oK0fGmxJK0vOrvhZGqwX-15" value="&lt;font style=&quot;font-size: 18px&quot;&gt;产品管理&lt;/font&gt;" style="rounded=0;whiteSpace=wrap;html=1;direction=south;" vertex="1" parent="1">
          <mxGeometry x="230" y="470" width="50" height="90" as="geometry" />
        </mxCell>
        <mxCell id="oK0fGmxJK0vOrvhZGqwX-16" value="&lt;font style=&quot;font-size: 18px&quot;&gt;顾客管理&lt;/font&gt;" style="rounded=0;whiteSpace=wrap;html=1;direction=south;" vertex="1" parent="1">
          <mxGeometry x="170" y="470" width="50" height="90" as="geometry" />
        </mxCell>
        <mxCell id="oK0fGmxJK0vOrvhZGqwX-17" value="&lt;font style=&quot;font-size: 18px&quot;&gt;订单&lt;br&gt;管理&lt;/font&gt;" style="rounded=0;whiteSpace=wrap;html=1;direction=south;align=left;" vertex="1" parent="1">
          <mxGeometry x="354" y="470" width="40" height="90" as="geometry" />
        </mxCell>
        <mxCell id="oK0fGmxJK0vOrvhZGqwX-39" value="&lt;font style=&quot;font-size: 18px&quot;&gt;产品信息查询&lt;/font&gt;" style="rounded=0;whiteSpace=wrap;html=1;direction=south;" vertex="1" parent="1">
          <mxGeometry x="486" y="450" width="50" height="110" as="geometry" />
        </mxCell>
        <mxCell id="oK0fGmxJK0vOrvhZGqwX-40" value="&lt;font style=&quot;font-size: 18px&quot;&gt;产品购买&lt;/font&gt;" style="rounded=0;whiteSpace=wrap;html=1;direction=south;" vertex="1" parent="1">
          <mxGeometry x="560" y="450" width="50" height="110" as="geometry" />
        </mxCell>
        <mxCell id="oK0fGmxJK0vOrvhZGqwX-41" value="&lt;font style=&quot;font-size: 18px&quot;&gt;订单信息查询&lt;/font&gt;" style="rounded=0;whiteSpace=wrap;html=1;direction=south;" vertex="1" parent="1">
          <mxGeometry x="630" y="450" width="50" height="110" as="geometry" />
        </mxCell>
        <mxCell id="oK0fGmxJK0vOrvhZGqwX-42" value="&lt;font style=&quot;font-size: 18px&quot;&gt;产品优惠信息查询&lt;/font&gt;" style="rounded=0;whiteSpace=wrap;html=1;direction=south;" vertex="1" parent="1">
          <mxGeometry x="706" y="450" width="50" height="110" as="geometry" />
        </mxCell>
      </root>
    </mxGraphModel>
  </diagram>
</mxfile>
